<mxfile host="Electron" modified="2024-08-31T03:58:03.741Z" agent="Mozilla/5.0 (X11; Linux x86_64) AppleWebKit/537.36 (KHTML, like Gecko) draw.io/24.6.4 Chrome/124.0.6367.207 Electron/30.0.6 Safari/537.36" etag="Kfs6eFl-_CWUeSbZUSEl" version="24.6.4" type="device">
  <diagram name="Page-1" id="z5rVjQ-aB9bvtYgFab-Q">
    <mxGraphModel dx="1034" dy="782" grid="1" gridSize="10" guides="1" tooltips="1" connect="1" arrows="1" fold="1" page="1" pageScale="1" pageWidth="850" pageHeight="1100" math="0" shadow="0">
      <root>
        <mxCell id="0" />
        <mxCell id="1" parent="0" />
        <mxCell id="hmzc5X8tg0pPrqxFYgq6-1" value="Compra de anuncio" style="ellipse;whiteSpace=wrap;html=1;" vertex="1" parent="1">
          <mxGeometry x="120" y="60" width="120" height="80" as="geometry" />
        </mxCell>
        <mxCell id="hmzc5X8tg0pPrqxFYgq6-2" value="Desactivacion de anuncio" style="ellipse;whiteSpace=wrap;html=1;" vertex="1" parent="1">
          <mxGeometry x="610" y="70" width="120" height="80" as="geometry" />
        </mxCell>
        <mxCell id="hmzc5X8tg0pPrqxFYgq6-3" value="Administracion de anuncios" style="ellipse;whiteSpace=wrap;html=1;" vertex="1" parent="1">
          <mxGeometry x="120" y="200" width="120" height="80" as="geometry" />
        </mxCell>
        <mxCell id="hmzc5X8tg0pPrqxFYgq6-4" value="Registro de cuenta" style="ellipse;whiteSpace=wrap;html=1;" vertex="1" parent="1">
          <mxGeometry x="610" y="190" width="120" height="80" as="geometry" />
        </mxCell>
        <mxCell id="hmzc5X8tg0pPrqxFYgq6-5" value="Inicio de sesion" style="ellipse;whiteSpace=wrap;html=1;" vertex="1" parent="1">
          <mxGeometry x="120" y="320" width="120" height="80" as="geometry" />
        </mxCell>
        <mxCell id="hmzc5X8tg0pPrqxFYgq6-6" value="Publicacion de revista" style="ellipse;whiteSpace=wrap;html=1;" vertex="1" parent="1">
          <mxGeometry x="610" y="310" width="120" height="80" as="geometry" />
        </mxCell>
        <mxCell id="hmzc5X8tg0pPrqxFYgq6-7" value="Suscripcion a una revista" style="ellipse;whiteSpace=wrap;html=1;" vertex="1" parent="1">
          <mxGeometry x="120" y="440" width="120" height="80" as="geometry" />
        </mxCell>
        <mxCell id="hmzc5X8tg0pPrqxFYgq6-8" value="Edicion de perfil" style="ellipse;whiteSpace=wrap;html=1;" vertex="1" parent="1">
          <mxGeometry x="120" y="560" width="120" height="80" as="geometry" />
        </mxCell>
        <mxCell id="hmzc5X8tg0pPrqxFYgq6-9" value="Comentarios" style="ellipse;whiteSpace=wrap;html=1;" vertex="1" parent="1">
          <mxGeometry x="610" y="440" width="120" height="80" as="geometry" />
        </mxCell>
        <mxCell id="hmzc5X8tg0pPrqxFYgq6-10" value="Busqueda de revistas" style="ellipse;whiteSpace=wrap;html=1;" vertex="1" parent="1">
          <mxGeometry x="610" y="550" width="120" height="80" as="geometry" />
        </mxCell>
        <mxCell id="hmzc5X8tg0pPrqxFYgq6-11" value="Visualizacion de revistas suscritas" style="ellipse;whiteSpace=wrap;html=1;" vertex="1" parent="1">
          <mxGeometry x="120" y="670" width="120" height="80" as="geometry" />
        </mxCell>
        <mxCell id="hmzc5X8tg0pPrqxFYgq6-12" value="Visualizacion de revistas propias" style="ellipse;whiteSpace=wrap;html=1;" vertex="1" parent="1">
          <mxGeometry x="120" y="780" width="120" height="80" as="geometry" />
        </mxCell>
        <mxCell id="hmzc5X8tg0pPrqxFYgq6-13" value="Administracion de revistas" style="ellipse;whiteSpace=wrap;html=1;" vertex="1" parent="1">
          <mxGeometry x="610" y="670" width="120" height="80" as="geometry" />
        </mxCell>
        <mxCell id="hmzc5X8tg0pPrqxFYgq6-14" value="Pago de cuota diaria" style="ellipse;whiteSpace=wrap;html=1;" vertex="1" parent="1">
          <mxGeometry x="120" y="890" width="120" height="80" as="geometry" />
        </mxCell>
        <mxCell id="hmzc5X8tg0pPrqxFYgq6-15" value="Publicacion de una nueva version" style="ellipse;whiteSpace=wrap;html=1;" vertex="1" parent="1">
          <mxGeometry x="610" y="780" width="120" height="80" as="geometry" />
        </mxCell>
        <mxCell id="hmzc5X8tg0pPrqxFYgq6-16" value="Bloqueo de suscriptores" style="ellipse;whiteSpace=wrap;html=1;" vertex="1" parent="1">
          <mxGeometry x="120" y="1000" width="120" height="80" as="geometry" />
        </mxCell>
        <mxCell id="hmzc5X8tg0pPrqxFYgq6-17" value="Bloqueo de comentarios y me gusta" style="ellipse;whiteSpace=wrap;html=1;" vertex="1" parent="1">
          <mxGeometry x="610" y="890" width="120" height="80" as="geometry" />
        </mxCell>
        <mxCell id="hmzc5X8tg0pPrqxFYgq6-18" value="Reporte administrador" style="ellipse;whiteSpace=wrap;html=1;" vertex="1" parent="1">
          <mxGeometry x="120" y="1120" width="120" height="80" as="geometry" />
        </mxCell>
        <mxCell id="hmzc5X8tg0pPrqxFYgq6-19" value="Reporte editor" style="ellipse;whiteSpace=wrap;html=1;" vertex="1" parent="1">
          <mxGeometry x="610" y="1000" width="120" height="80" as="geometry" />
        </mxCell>
        <mxCell id="hmzc5X8tg0pPrqxFYgq6-20" value="Anunciante" style="shape=umlActor;verticalLabelPosition=bottom;verticalAlign=top;html=1;outlineConnect=0;" vertex="1" parent="1">
          <mxGeometry x="460" y="1290" width="30" height="60" as="geometry" />
        </mxCell>
        <mxCell id="hmzc5X8tg0pPrqxFYgq6-21" value="Administrador" style="shape=umlActor;verticalLabelPosition=bottom;verticalAlign=top;html=1;outlineConnect=0;" vertex="1" parent="1">
          <mxGeometry x="360" y="1290" width="30" height="60" as="geometry" />
        </mxCell>
        <mxCell id="hmzc5X8tg0pPrqxFYgq6-22" value="Editor" style="shape=umlActor;verticalLabelPosition=bottom;verticalAlign=top;html=1;outlineConnect=0;" vertex="1" parent="1">
          <mxGeometry x="260" y="1290" width="30" height="60" as="geometry" />
        </mxCell>
        <mxCell id="hmzc5X8tg0pPrqxFYgq6-23" value="Suscriptor" style="shape=umlActor;verticalLabelPosition=bottom;verticalAlign=top;html=1;outlineConnect=0;" vertex="1" parent="1">
          <mxGeometry x="150" y="1290" width="30" height="60" as="geometry" />
        </mxCell>
      </root>
    </mxGraphModel>
  </diagram>
</mxfile>
